<svg width="88" height="88" viewBox="0 0 88 88" fill="none" xmlns="http://www.w3.org/2000/svg">
<path d="M76.4706 0H11.5294C5.16189 0 0 5.16189 0 11.5294V76.4706C0 82.8381 5.16189 88 11.5294 88H76.4706C82.8381 88 88 82.8381 88 76.4706V11.5294C88 5.16189 82.8381 0 76.4706 0Z" fill="#8F939E"/>
<path d="M62 19L56.9333 50.2143L39.2554 57L24 50.2143L25.5517 42.1732H32.0433L31.41 45.617L40.625 49.383L51.2413 45.617L52.7296 37.3808H26.3354L27.6021 30.4254H54.02L54.8512 25.9554H28.4571L29.7475 19H62Z" fill="black"/>
<path d="M33.7656 75.6094C32.8021 75.9219 31.7604 76.0781 30.6406 76.0781C26.7344 76.0781 24.7812 74.138 24.7812 70.2578C24.7812 66.5859 26.7344 64.75 30.6406 64.75C31.7604 64.75 32.8021 64.9062 33.7656 65.2188V66.4688C32.8021 66.1042 31.8125 65.9219 30.7969 65.9219C27.75 65.9219 26.2266 67.3672 26.2266 70.2578C26.2266 73.3568 27.75 74.9062 30.7969 74.9062C31.8125 74.9062 32.8021 74.724 33.7656 74.3594V75.6094ZM37.6 75.6094V74.2812C38.7719 74.6979 40.0375 74.9062 41.3969 74.9062C43.3188 74.9062 44.2797 74.2031 44.2797 72.7969C44.2797 71.599 43.5714 71 42.1547 71H40.7172C38.3786 71 37.2094 69.9844 37.2094 67.9531C37.2094 65.8177 38.7068 64.75 41.7016 64.75C43.0036 64.75 44.2146 64.9062 45.3344 65.2188V66.5469C44.2146 66.1302 43.0036 65.9219 41.7016 65.9219C39.6703 65.9219 38.6547 66.599 38.6547 67.9531C38.6547 69.151 39.3422 69.75 40.7172 69.75H42.1547C44.5349 69.75 45.725 70.7656 45.725 72.7969C45.725 74.9844 44.2823 76.0781 41.3969 76.0781C40.0375 76.0781 38.7719 75.9219 37.6 75.6094ZM49.2781 75.6094V74.2812C50.45 74.6979 51.7156 74.9062 53.075 74.9062C54.9969 74.9062 55.9578 74.2031 55.9578 72.7969C55.9578 71.599 55.2495 71 53.8328 71H52.3953C50.0568 71 48.8875 69.9844 48.8875 67.9531C48.8875 65.8177 50.3849 64.75 53.3797 64.75C54.6818 64.75 55.8927 64.9062 57.0125 65.2188V66.5469C55.8927 66.1302 54.6818 65.9219 53.3797 65.9219C51.3484 65.9219 50.3328 66.599 50.3328 67.9531C50.3328 69.151 51.0203 69.75 52.3953 69.75H53.8328C56.213 69.75 57.4031 70.7656 57.4031 72.7969C57.4031 74.9844 55.9604 76.0781 53.075 76.0781C51.7156 76.0781 50.45 75.9219 49.2781 75.6094Z" fill="black"/>
</svg>
