<svg width="88" height="88" viewBox="0 0 88 88" fill="none" xmlns="http://www.w3.org/2000/svg">
<path d="M76.4706 0H11.5294C5.16189 0 0 5.16189 0 11.5294V76.4706C0 82.8381 5.16189 88 11.5294 88H76.4706C82.8381 88 88 82.8381 88 76.4706V11.5294C88 5.16189 82.8381 0 76.4706 0Z" fill="#8F939E"/>
<path d="M23.1719 77.6094V76.2812C24.3438 76.6979 25.6094 76.9062 26.9688 76.9062C28.8906 76.9062 29.8516 76.2031 29.8516 74.7969C29.8516 73.599 29.1432 73 27.7266 73H26.2891C23.9505 73 22.7812 71.9844 22.7812 69.9531C22.7812 67.8177 24.2786 66.75 27.2734 66.75C28.5755 66.75 29.7865 66.9062 30.9062 67.2188V68.5469C29.7865 68.1302 28.5755 67.9219 27.2734 67.9219C25.2422 67.9219 24.2266 68.599 24.2266 69.9531C24.2266 71.151 24.9141 71.75 26.2891 71.75H27.7266C30.1068 71.75 31.2969 72.7656 31.2969 74.7969C31.2969 76.9844 29.8542 78.0781 26.9688 78.0781C25.6094 78.0781 24.3438 77.9219 23.1719 77.6094ZM35.3734 78H33.8734L38.6156 66.8281H40.2172L44.9828 78H43.3813L41.9359 74.4844H38.2406L38.6391 73.3125H41.4516L39.3656 68.25L35.3734 78ZM47.95 77.6094V76.2812C49.1219 76.6979 50.3875 76.9062 51.7469 76.9062C53.6688 76.9062 54.6297 76.2031 54.6297 74.7969C54.6297 73.599 53.9214 73 52.5047 73H51.0672C48.7286 73 47.5594 71.9844 47.5594 69.9531C47.5594 67.8177 49.0568 66.75 52.0516 66.75C53.3536 66.75 54.5646 66.9062 55.6844 67.2188V68.5469C54.5646 68.1302 53.3536 67.9219 52.0516 67.9219C50.0203 67.9219 49.0047 68.599 49.0047 69.9531C49.0047 71.151 49.6922 71.75 51.0672 71.75H52.5047C54.8849 71.75 56.075 72.7656 56.075 74.7969C56.075 76.9844 54.6323 78.0781 51.7469 78.0781C50.3875 78.0781 49.1219 77.9219 47.95 77.6094ZM59.6281 77.6094V76.2812C60.8 76.6979 62.0656 76.9062 63.425 76.9062C65.3469 76.9062 66.3078 76.2031 66.3078 74.7969C66.3078 73.599 65.5995 73 64.1828 73H62.7453C60.4068 73 59.2375 71.9844 59.2375 69.9531C59.2375 67.8177 60.7349 66.75 63.7297 66.75C65.0318 66.75 66.2427 66.9062 67.3625 67.2188V68.5469C66.2427 68.1302 65.0318 67.9219 63.7297 67.9219C61.6984 67.9219 60.6828 68.599 60.6828 69.9531C60.6828 71.151 61.3703 71.75 62.7453 71.75H64.1828C66.563 71.75 67.7531 72.7656 67.7531 74.7969C67.7531 76.9844 66.3104 78.0781 63.425 78.0781C62.0656 78.0781 60.8 77.9219 59.6281 77.6094Z" fill="black"/>
<path d="M49.9217 44.7285C49.9039 44.776 49.8861 44.814 49.9217 44.7285V44.7285ZM64.714 37.8416C63.5198 37.841 62.3415 38.2067 61.2702 38.9102C60.9199 37.9682 60.5577 37.1449 60.4983 36.5275C60.4271 35.8071 60.3499 35.3797 60.433 34.5247C60.5162 33.6698 60.8902 32.4587 60.8843 32.3716C60.8783 32.2845 60.8012 31.8491 60.0352 31.8412C59.2693 31.8333 58.6102 32.0391 58.5336 32.3083C58.3983 32.8001 58.2931 33.3057 58.2189 33.8202C58.0823 34.7464 56.6876 38.0553 55.8979 39.781C55.6367 39.1081 55.417 38.5144 55.3695 38.0395C55.2982 37.3191 55.221 36.8916 55.3042 36.0367C55.3873 35.1818 55.7613 33.9706 55.7554 33.8835C55.7495 33.7965 55.6723 33.3611 54.9069 33.3532C54.1416 33.3453 53.4819 33.5511 53.4047 33.8202C53.3275 34.0894 53.2444 34.7226 53.09 35.3322C52.9357 35.9417 51.0778 41.4513 50.5915 42.8841C50.3421 43.6123 50.1284 44.1981 49.974 44.5939C49.9502 44.6572 49.9324 44.6968 49.9206 44.7285C49.9384 44.6889 49.9502 44.6493 49.9502 44.6652C49.8196 45.0055 49.7424 45.1955 49.7424 45.1955V45.2035C49.6415 45.4568 49.5287 45.6863 49.4752 45.6863C49.4396 45.6863 49.3624 45.0214 49.4931 44.111C49.7721 42.1954 50.4312 39.2189 50.4253 39.116C50.4193 39.0606 50.5499 38.5461 49.9918 38.269C49.4515 38.0078 49.2556 38.4432 49.2081 38.4432C49.1606 38.4432 49.1249 38.6015 49.1249 38.6015C49.1249 38.6015 49.7246 35.2451 47.9736 35.2451C46.8811 35.2451 45.3611 36.8441 44.6142 38.2928C44.1451 38.6332 43.1298 39.3693 42.061 40.153C41.6513 40.4538 41.2297 40.7626 40.8319 41.0555C40.8022 41.0159 40.7785 40.9763 40.7488 40.9367C38.6237 37.9128 34.7002 35.7755 34.8664 31.7146C34.9258 30.2343 35.3118 26.3475 42.4113 21.6295C48.2301 17.7665 52.8822 18.8273 53.6832 21.1862C54.8351 24.5506 51.1959 30.8121 45.1533 31.7146C42.8501 32.0549 41.6394 30.8675 41.3366 30.4242C41.0219 29.9572 40.9744 29.9334 40.8557 30.0205C40.6597 30.163 40.7844 30.5746 40.8557 30.82C41.0338 31.4454 41.776 32.5536 43.0401 33.1078C44.1504 33.5906 46.8508 33.8598 50.1159 32.1737C53.7841 30.2897 56.6395 25.0413 55.8023 20.648C54.9497 16.1833 49.3969 14.7189 44.1463 17.2045C41.0178 18.6848 37.6345 21.0121 35.2007 24.0439C32.3097 27.6536 31.8472 30.7963 32.0372 32.1104C32.7135 36.7729 37.5336 39.8126 39.4627 42.0608C39.3677 42.132 39.2787 42.1954 39.1955 42.2587C38.2283 42.8999 34.5535 45.4647 33.6338 48.172C32.5947 51.2434 33.806 53.444 34.601 53.7448C37.0823 54.6631 39.623 53.0086 40.9881 50.2935C42.3531 47.5783 42.1875 44.0319 41.5581 42.417C41.5521 42.3933 41.5403 42.3774 41.5343 42.3537C41.7837 42.1558 42.039 41.9579 42.2943 41.76C42.7866 41.3721 43.2675 41.0159 43.6891 40.7071C43.4516 41.5621 43.2794 42.5912 43.1903 44.0794C43.0834 45.8209 43.6238 48.077 44.3244 48.9636C44.6332 49.3514 45.0066 49.3594 45.2382 49.3594C46.0576 49.3594 46.4257 48.4569 46.8348 47.3804C47.3395 46.0663 47.7848 44.5385 47.7848 44.5385C47.7848 44.5385 47.2267 48.6707 48.7526 48.6707C49.3102 48.6707 49.8683 47.7128 50.1183 47.222V47.2299C50.1183 47.2299 50.1302 47.1983 50.1598 47.135C50.2192 47.0162 50.2489 46.945 50.2489 46.945V46.9212C50.4745 46.4067 50.9674 45.2272 51.709 43.2799C52.6708 40.7626 53.5906 37.6199 53.5906 37.6199C53.6794 38.3107 53.8024 38.993 53.9587 39.6622C54.125 40.4143 54.4753 41.2375 54.7543 42.037C54.5287 42.4487 54.3921 42.6862 54.3921 42.6862C54.3926 42.6922 54.3947 42.6979 54.3981 42.702C54.22 43.0186 54.0181 43.359 53.8103 43.6915C53.0508 44.8947 52.1477 46.2721 52.029 46.6679C51.8865 47.135 51.9221 47.4833 52.1952 47.7524C52.3971 47.9582 52.7534 47.9899 53.1268 47.9503C53.8097 47.887 54.2906 47.6653 54.5222 47.5228C54.9491 47.3188 55.3526 47.0363 55.721 46.6837C56.4632 45.9555 56.9144 44.9106 56.8729 43.5332C56.8491 42.7732 56.665 42.0133 56.4394 41.3009C56.5047 41.1742 56.576 41.0396 56.6413 40.9051C57.8163 38.6173 58.7248 36.1064 58.7248 36.1064C58.8137 36.7972 58.9366 37.4795 59.0929 38.1487C59.2354 38.7899 59.5139 39.4944 59.7692 40.1831C58.6654 41.3784 57.9826 42.7637 57.7451 43.6741C57.3057 45.3602 57.6501 46.1201 58.2973 46.2943C58.5882 46.3734 59.0039 46.1914 59.3126 46.0172C59.7711 45.8136 60.2035 45.5172 60.5945 45.1385C61.3367 44.4103 62.0546 43.3891 62.0071 42.0038C61.9893 41.3784 61.8586 40.7531 61.6864 40.1514C62.6186 39.629 63.8293 39.344 65.3731 39.5815C68.6791 40.096 69.3263 42.8508 69.2016 43.9986C69.0769 45.1465 68.3822 45.7877 68.1507 45.9776C67.9191 46.1676 67.8479 46.2389 67.8657 46.3814C67.8954 46.5872 68.0022 46.5793 68.1982 46.5318C68.4713 46.4684 69.9314 45.5977 69.9967 43.4683C70.0917 40.7768 68.1507 37.8162 64.7122 37.84L64.714 37.8416ZM39.2312 49.296C38.1392 50.8872 36.6073 51.4888 35.9489 50.9821C35.2423 50.4344 35.5214 48.0928 36.8686 46.3972C37.688 45.3681 38.7443 44.4182 39.4449 43.8324C39.6052 43.7057 39.8368 43.5158 40.1218 43.2862C40.1693 43.2466 40.193 43.2308 40.193 43.2308C40.2465 43.1833 40.3059 43.1437 40.3652 43.0962C40.8575 45.5027 40.383 47.6242 39.2312 49.2944V49.296ZM47.2089 42.0608C46.8289 43.3036 46.0279 46.47 45.541 46.3038C45.1254 46.1613 44.8701 43.7469 45.4579 41.3721C45.7548 40.1768 46.3841 38.7519 46.7582 38.1978C47.3573 37.3033 48.0164 37.0183 48.1708 37.3745C48.3786 37.8415 47.4464 41.285 47.2089 42.0608ZM53.7996 46.2563C53.6393 46.3671 53.4908 46.4384 53.4196 46.3829C53.3661 46.3434 53.4849 46.193 53.4849 46.193C53.4849 46.193 54.3102 45.0135 54.6368 44.4752C54.8268 44.1585 55.0465 43.7865 55.2834 43.3748C55.2834 43.4144 55.2893 43.454 55.2893 43.5015C55.2816 44.9185 54.2609 45.8763 53.7978 46.2563H53.7996ZM58.8809 44.7127C58.7622 44.6018 58.78 44.2298 59.1778 43.074C59.3322 42.6228 59.6879 41.8629 60.306 41.1346C60.3759 41.4103 60.414 41.6986 60.4188 41.9895C60.4128 43.7707 59.4569 44.4356 58.8815 44.7127H58.8809Z" fill="black"/>
</svg>
