<svg width="88" height="88" viewBox="0 0 88 88" fill="none" xmlns="http://www.w3.org/2000/svg">
<path d="M77.8541 0H10.1459C4.54247 0 0 4.54247 0 10.1459V77.8541C0 83.4575 4.54247 88 10.1459 88H77.8541C83.4575 88 88 83.4575 88 77.8541V10.1459C88 4.54247 83.4575 0 77.8541 0Z" fill="#8F939E"/>
<path d="M25 17L28.4536 50.5723L43.9505 55L59.5464 50.5723L63 17H25ZM55.499 27.8487H37.3104L37.7161 32.0388H55.0932L53.7474 44.6263L44.0594 46.9165V46.942H43.9505L34.1833 44.6263L33.5896 38.1969H38.3099L38.6562 41.4286L43.9505 42.6585L49.2646 41.4286L49.8583 36.1527H33.3422L32.0755 23.8027H55.9344L55.499 27.8487Z" fill="black"/>
<path d="M21.3281 74V62.8281H22.7734V67.75H29.375V62.8281H30.8203V74H29.375V68.9219H22.7734V74H21.3281ZM42.6234 62.8281V64H39.1078V74H37.6625V64H34.1469V62.8281H42.6234ZM45.95 74V62.8281H47.7859L51.8875 72.1484L55.9109 62.8281H57.6688V74H56.3797V64.8359L52.4109 74H51.2703L47.2391 64.8359V74H45.95ZM63.3703 62.8281V72.8281H69.2141V74H61.925V62.8281H63.3703Z" fill="black"/>
</svg>
