<svg width="88" height="88" viewBox="0 0 88 88" fill="none" xmlns="http://www.w3.org/2000/svg">
<path d="M76.4706 0H11.5294C5.16189 0 0 5.16189 0 11.5294V76.4706C0 82.8381 5.16189 88 11.5294 88H76.4706C82.8381 88 88 82.8381 88 76.4706V11.5294C88 5.16189 82.8381 0 76.4706 0Z" fill="#8F939E"/>
<path d="M62.2832 33.3078L45.6964 16.7165C45.2372 16.2577 44.6147 16 43.9656 16C43.3166 16 42.694 16.2577 42.2349 16.7165L38.786 20.1628L43.156 24.5329C45.4513 23.7576 47.6244 25.9554 46.8364 28.238L51.0486 32.4503C53.9521 31.4494 56.238 35.0798 54.0572 37.2589C51.8103 39.5058 48.1019 37.0154 49.3073 34.0916L45.3758 30.1651V40.5008C47.5218 41.5645 47.2639 44.0506 46.146 45.1661C45.5998 45.712 44.8592 46.0186 44.0869 46.0186C43.3147 46.0186 42.5741 45.712 42.0279 45.1661C40.5376 43.6732 41.0889 41.187 42.9821 40.416V29.9828C41.2179 29.2609 40.8955 27.3753 41.4011 26.1657L37.093 21.8525L25.7168 33.2306C25.2578 33.6897 25 34.3123 25 34.9614C25 35.6106 25.2578 36.2332 25.7168 36.6923L42.3087 53.2836C42.7677 53.7423 43.3901 54 44.039 54C44.688 54 45.3103 53.7423 45.7694 53.2836L62.2832 36.7694C62.7422 36.3104 63 35.6878 63 35.0386C63 34.3895 62.7422 33.7669 62.2832 33.3078Z" fill="black"/>
<path d="M39.7656 80.5625C38.8646 80.9062 37.8932 81.0781 36.8516 81.0781C32.8047 81.0781 30.7812 79.138 30.7812 75.2578C30.7812 71.5859 32.7344 69.75 36.6406 69.75C37.7604 69.75 38.8021 69.9062 39.7656 70.2188V71.4688C38.8021 71.1042 37.8125 70.9219 36.7969 70.9219C33.75 70.9219 32.2266 72.3672 32.2266 75.2578C32.2266 78.3568 33.7266 79.9062 36.7266 79.9062C37.2057 79.9062 37.737 79.8438 38.3203 79.7188V75.9219H39.7656V80.5625ZM45.4359 69.8281V81H43.9906V69.8281H45.4359ZM57.4734 69.8281V71H53.9578V81H52.5125V71H48.9969V69.8281H57.4734Z" fill="black"/>
</svg>
