<svg width="88" height="88" viewBox="0 0 88 88" fill="none" xmlns="http://www.w3.org/2000/svg">
<path d="M76.4706 0H11.5294C5.16189 0 0 5.16189 0 11.5294V76.4706C0 82.8381 5.16189 88 11.5294 88H76.4706C82.8381 88 88 82.8381 88 76.4706V11.5294C88 5.16189 82.8381 0 76.4706 0Z" fill="#8F939E"/>
<path d="M7.24512 81V70.5264H11.7129C13.7051 70.5264 14.7012 71.3638 14.7012 73.0386C14.7012 74.4009 13.7271 75.4092 11.7788 76.0635L15.375 81H13.5879L10.2554 76.2905V75.4043C12.2573 75.0869 13.2583 74.3179 13.2583 73.0972C13.2583 72.1304 12.7017 71.647 11.5884 71.647H8.6001V81H7.24512ZM25.1587 70.5264V71.625H19.6655V75.1406H24.9023V76.2393H19.6655V79.9014H25.2686V81H18.3105V70.5264H25.1587ZM28.6729 80.6338V79.3887C29.7715 79.7793 30.958 79.9746 32.2324 79.9746C34.0342 79.9746 34.9351 79.3154 34.9351 77.9971C34.9351 76.874 34.271 76.3125 32.9429 76.3125H31.5952C29.4028 76.3125 28.3066 75.3604 28.3066 73.4561C28.3066 71.4541 29.7104 70.4531 32.5181 70.4531C33.7388 70.4531 34.874 70.5996 35.9238 70.8926V72.1377C34.874 71.7471 33.7388 71.5518 32.5181 71.5518C30.6138 71.5518 29.6616 72.1865 29.6616 73.4561C29.6616 74.5791 30.3062 75.1406 31.5952 75.1406H32.9429C35.1743 75.1406 36.29 76.0928 36.29 77.9971C36.29 80.0479 34.9375 81.0732 32.2324 81.0732C30.958 81.0732 29.7715 80.9268 28.6729 80.6338ZM46.8354 70.5264V71.625H43.5396V81H42.1846V71.625H38.8887V70.5264H46.8354ZM55.4604 81H54.0542L58.5 70.5264H60.0015L64.4692 81H62.9678L61.6128 77.7041H58.1484L58.522 76.6055H61.1587L59.2031 71.8594L55.4604 81ZM67.3975 81V70.5264H71.6455C73.7842 70.5264 74.8535 71.4614 74.8535 73.3315C74.8535 75.3677 73.3911 76.6104 70.4663 77.0596L70.188 75.917C72.3364 75.5996 73.4106 74.7573 73.4106 73.3901C73.4106 72.228 72.7808 71.647 71.521 71.647H68.7524V81H67.3975ZM79.73 70.5264V81H78.375V70.5264H79.73Z" fill="black"/>
<path d="M46.2 29.5H45V32.6H46.3C47.1 32.6 47.8 31.9 47.8 31.1C47.8 30.2 47.1 29.5 46.2 29.5ZM46.2 29.5H45V32.6H46.3C47.1 32.6 47.8 31.9 47.8 31.1C47.8 30.2 47.1 29.5 46.2 29.5ZM25.5 22V45H62.5V22H25.5ZM41 39.6H39V35.9H36.2V39.6H34.2V30.9C34.2 29 35.7 27.5 37.6 27.5C39.5 27.5 41 29 41 30.9V39.6ZM46.2 34.6H45V39.6H43V27.5H46.3C48.2 27.5 49.8 29.1 49.8 31.1C49.8 33 48.2 34.6 46.2 34.6ZM53.8 39.6H51.8V27.6H53.8V39.6ZM46.2 29.5H45V32.6H46.3C47.1 32.6 47.8 31.9 47.8 31.1C47.8 30.2 47.1 29.5 46.2 29.5ZM37.6 29.5C36.8 29.5 36.2 30.1 36.2 30.9V33.9H39V30.9C39 30.1 38.3 29.5 37.6 29.5Z" fill="black"/>
<path d="M65.7 53H22.3L20 47.1H68L65.7 53Z" fill="black"/>
</svg>
