<svg width="89" height="88" viewBox="0 0 89 88" fill="none" xmlns="http://www.w3.org/2000/svg">
<path d="M77.4706 0H11.5294C5.16189 0 0 5.16189 0 11.5294V76.4706C0 82.8381 5.16189 88 11.5294 88H77.4706C83.8381 88 89 82.8381 89 76.4706V11.5294C89 5.16189 83.8381 0 77.4706 0Z" fill="#8F939E"/>
<path d="M17.3281 81V69.8281H22.0938C24.2188 69.8281 25.2812 70.7214 25.2812 72.5078C25.2812 73.9609 24.2422 75.0365 22.1641 75.7344L26 81H24.0938L20.5391 75.9766V75.0312C22.6745 74.6927 23.7422 73.8724 23.7422 72.5703C23.7422 71.5391 23.1484 71.0234 21.9609 71.0234H18.7734V81H17.3281ZM36.4359 69.8281V71H30.5766V74.75H36.1625V75.9219H30.5766V79.8281H36.5531V81H29.1313V69.8281H36.4359ZM40.7078 81H39.2078L43.95 69.8281H45.5516L50.3172 81H48.7156L47.2703 77.4844H43.575L43.9734 76.3125H46.7859L44.7 71.25L40.7078 81ZM61.8781 80.6094C60.9146 80.9219 59.8729 81.0781 58.7531 81.0781C54.8469 81.0781 52.8937 79.138 52.8937 75.2578C52.8937 71.5859 54.8469 69.75 58.7531 69.75C59.8729 69.75 60.9146 69.9062 61.8781 70.2188V71.4688C60.9146 71.1042 59.925 70.9219 58.9094 70.9219C55.8625 70.9219 54.3391 72.3672 54.3391 75.2578C54.3391 78.3568 55.8625 79.9062 58.9094 79.9062C59.925 79.9062 60.9146 79.724 61.8781 79.3594V80.6094ZM73.4078 69.8281V71H69.8922V81H68.4469V71H64.9313V69.8281H73.4078Z" fill="black"/>
<path d="M57.0383 29.3144C56.6375 29.1617 56.2367 29.0175 55.8359 28.8818C55.9027 28.568 55.9621 28.2541 56.0215 27.9403C56.9344 22.8852 56.3332 18.8225 54.307 17.4824C52.3551 16.2017 49.1711 17.5333 45.95 20.7394C45.6309 21.0532 45.3191 21.384 45.0223 21.7148C44.8219 21.4942 44.6141 21.2737 44.4062 21.0617C41.0293 17.6351 37.6449 16.1932 35.6188 17.5418C33.6742 18.831 33.0953 22.6562 33.9117 27.4399C33.9934 27.9149 34.0824 28.3814 34.1863 28.8563C33.7113 29.009 33.2437 29.1786 32.8059 29.3568C28.8426 30.9259 26 33.4025 26 35.964C26 38.6103 29.0281 41.2651 33.1473 42.8766C33.4813 43.0038 33.8152 43.131 34.1566 43.2413C34.0453 43.7502 33.9488 44.2506 33.8598 44.768C33.0805 49.4753 33.6891 53.2073 35.6336 54.488C37.6375 55.8111 41.007 54.4541 44.2875 51.1717C44.5473 50.9087 44.807 50.6373 45.0668 50.3489C45.3934 50.7137 45.7348 51.0614 46.0762 51.4007C49.2527 54.5219 52.3922 55.7857 54.3293 54.505C56.3332 53.1818 56.9863 49.17 56.1402 44.2845C56.0734 43.9113 55.9992 43.5297 55.9176 43.1395C56.1551 43.0632 56.3852 42.9784 56.6152 42.8935C60.8977 41.2735 64 38.6527 64 35.964C64 33.394 61.0758 30.9004 57.0383 29.3144ZM46.9965 22.1134C49.7574 19.3653 52.3328 18.2882 53.5055 19.06C54.7598 19.8827 55.2422 23.2075 54.4555 27.5756C54.4035 27.864 54.3516 28.1439 54.2848 28.4238C52.6371 27.9997 50.9672 27.6944 49.2898 27.5247C48.325 25.9471 47.2711 24.4374 46.1281 23.0209C46.4176 22.7071 46.6996 22.4103 46.9965 22.1134ZM38.4094 40.366C38.7879 41.1039 39.1738 41.8418 39.582 42.5627C38.4242 42.4186 37.2738 42.2065 36.1383 41.9266C36.4648 40.7053 36.873 39.4415 37.348 38.1523C37.6895 38.8987 38.0383 39.6366 38.4094 40.366ZM36.1605 30.1625C37.2293 29.8911 38.3648 29.6706 39.5449 29.5009C39.1516 30.2049 38.7656 30.9259 38.402 31.6553C38.0383 32.3762 37.682 33.1141 37.348 33.8605C36.8805 32.5968 36.4871 31.3584 36.1605 30.1625ZM38.1941 36.0064C38.684 34.8359 39.2184 33.6909 39.7824 32.5628C40.3465 31.4348 40.9551 30.3406 41.5934 29.2635C42.7066 29.1702 43.8422 29.1193 45 29.1193C46.1578 29.1193 47.3008 29.1702 48.4066 29.2635C49.0375 30.3322 49.6387 31.4263 50.2102 32.5459C50.7816 33.6655 51.316 34.8105 51.8207 35.9725C51.3234 37.143 50.7891 38.2965 50.2176 39.433C49.6535 40.5611 49.0523 41.6552 48.4215 42.7409C47.3156 42.8342 46.1652 42.8766 45 42.8766C43.8348 42.8766 42.7066 42.8342 41.6156 42.7578C40.9699 41.6807 40.3613 40.578 39.7898 39.45C39.2184 38.3219 38.6914 37.1769 38.1941 36.0064ZM51.598 40.349C51.9766 39.6026 52.3328 38.8478 52.6816 38.0844C53.1566 39.3143 53.5723 40.5611 53.9359 41.8418C52.7855 42.1387 51.6203 42.3677 50.4477 42.5203C50.8484 41.8079 51.227 41.0785 51.598 40.349ZM52.6668 33.8605C52.318 33.1141 51.9617 32.3678 51.5906 31.6383C51.227 30.9174 50.8484 30.2049 50.4551 29.5009C51.65 29.6706 52.793 29.8996 53.8617 30.1795C53.5203 31.4348 53.1195 32.6561 52.6668 33.8605ZM45.0148 24.3186C45.7941 25.2856 46.5289 26.3034 47.2117 27.3551C45.7422 27.2787 44.2652 27.2787 42.7957 27.3551C43.523 26.2609 44.2727 25.2431 45.0148 24.3186ZM36.4055 19.1194C37.6523 18.2882 40.4207 19.4756 43.3375 22.4272C43.523 22.6138 43.7086 22.8174 43.9016 23.0209C42.7512 24.4374 41.6898 25.9471 40.7176 27.5247C39.0402 27.6944 37.3777 27.9912 35.7301 28.4068C35.6336 27.9742 35.552 27.5332 35.4703 27.0921C34.7727 22.987 35.2328 19.8912 36.4055 19.1194ZM34.5871 41.4771C34.2754 41.3753 33.9711 41.2651 33.6668 41.1463C32.0859 40.578 30.2898 39.679 28.991 38.5C28.2414 37.9063 27.7367 36.9903 27.5957 35.964C27.5957 34.4118 29.941 32.4271 33.3254 31.0785C33.7484 30.9089 34.1789 30.7562 34.6094 30.6121C35.1141 32.4526 35.7227 34.2592 36.4277 36.0064C35.7152 37.7791 35.0992 39.6111 34.5871 41.4771ZM43.241 49.7892C42.0164 51.0699 40.5988 52.0877 39.0551 52.7832C38.2312 53.2327 37.2813 53.2751 36.4352 52.8935C35.2551 52.1131 34.7652 49.1191 35.4332 45.0903C35.5148 44.6153 35.6039 44.1403 35.7078 43.6739C37.3703 44.081 39.0477 44.3609 40.7473 44.5051C41.727 46.0911 42.8031 47.6094 43.9535 49.0343C43.716 49.2972 43.4785 49.5517 43.241 49.7892ZM45.0594 47.7281C44.3023 46.7951 43.5453 45.7603 42.8105 44.6492C43.523 44.6832 44.2578 44.7001 45 44.7001C45.7645 44.7001 46.5141 44.6832 47.2563 44.6408C46.5734 45.7179 45.8387 46.7442 45.0594 47.7281ZM54.7598 50.2726C54.693 51.3074 54.2477 52.2743 53.5352 52.9274C52.3551 53.7077 49.8391 52.6899 47.1227 50.0266C46.8109 49.7213 46.4992 49.3905 46.1801 49.0512C47.3156 47.6178 48.3621 46.0996 49.3121 44.5051C51.0117 44.3439 52.7039 44.047 54.3738 43.6145C54.448 43.9622 54.5148 44.31 54.5742 44.6492C54.9379 46.4813 54.9973 48.3897 54.7598 50.2726ZM56.1105 41.1548C55.9027 41.2311 55.6949 41.3075 55.4797 41.3753C54.9602 39.5263 54.3219 37.7197 53.5871 35.964C54.2996 34.2337 54.9008 32.4526 55.4055 30.629C55.7914 30.7562 56.1625 30.8919 56.5188 31.0277C59.9773 32.3847 62.4043 34.4034 62.4043 35.947C62.4043 37.6094 59.8141 39.7553 56.1105 41.1548ZM45 39.8825C46.8777 39.8825 48.3992 38.1438 48.3992 35.9979C48.3992 33.8521 46.8777 32.1133 45 32.1133C43.1223 32.1133 41.6008 33.8521 41.6008 35.9979C41.6008 38.1438 43.1223 39.8825 45 39.8825Z" fill="black"/>
</svg>
