<svg width="88" height="88" viewBox="0 0 88 88" fill="none" xmlns="http://www.w3.org/2000/svg">
<path d="M76.4706 0H11.5294C5.16189 0 0 5.16189 0 11.5294V76.4706C0 82.8381 5.16189 88 11.5294 88H76.4706C82.8381 88 88 82.8381 88 76.4706V11.5294C88 5.16189 82.8381 0 76.4706 0Z" fill="#8F939E"/>
<path d="M59.7098 16H29.1652C26.8657 16 25 17.8657 25 20.1652V50.7098C25 53.0093 26.8657 54.875 29.1652 54.875H59.7098C62.0093 54.875 63.875 53.0093 63.875 50.7098V20.1652C63.875 17.8657 62.0093 16 59.7098 16ZM46.1556 46.319C46.1556 50.1024 43.9342 51.8292 40.6975 51.8292C37.7732 51.8292 36.0811 50.3193 35.2134 48.4884L38.1897 46.6922C38.7624 47.7074 39.2831 48.5665 40.5413 48.5665C41.7388 48.5665 42.5024 48.0979 42.5024 46.267V33.8495H46.1556V46.319ZM54.7984 51.8292C51.4055 51.8292 49.2101 50.2152 48.1428 48.0979L51.1191 46.3798C51.9001 47.6554 52.924 48.6012 54.7203 48.6012C56.2302 48.6012 57.202 47.8463 57.202 46.7963C57.202 45.5467 56.2128 45.1042 54.5381 44.3666L53.6269 43.9761C50.989 42.8567 49.2448 41.4423 49.2448 38.4659C49.2448 35.7239 51.3361 33.6413 54.5901 33.6413C56.9157 33.6413 58.5817 34.4483 59.7792 36.5656L56.933 38.3878C56.3083 37.2684 55.6314 36.8259 54.5814 36.8259C53.5141 36.8259 52.8373 37.5027 52.8373 38.3878C52.8373 39.4812 53.5141 39.9237 55.0847 40.6093L55.9959 40.9997C59.1024 42.3274 60.8466 43.6898 60.8466 46.7442C60.8466 50.0243 58.2607 51.8292 54.7984 51.8292Z" fill="black"/>
<path d="M38.9844 64.8281V72.7812C38.9844 74.9271 37.7214 76 35.1953 76V74.8281C36.7578 74.8281 37.5391 74.1458 37.5391 72.7812V64.8281H38.9844ZM43.1625 75.6094V74.2812C44.3344 74.6979 45.6 74.9062 46.9594 74.9062C48.8812 74.9062 49.8422 74.2031 49.8422 72.7969C49.8422 71.599 49.1339 71 47.7172 71H46.2797C43.9411 71 42.7719 69.9844 42.7719 67.9531C42.7719 65.8177 44.2693 64.75 47.2641 64.75C48.5661 64.75 49.7771 64.9062 50.8969 65.2188V66.5469C49.7771 66.1302 48.5661 65.9219 47.2641 65.9219C45.2328 65.9219 44.2172 66.599 44.2172 67.9531C44.2172 69.151 44.9047 69.75 46.2797 69.75H47.7172C50.0974 69.75 51.2875 70.7656 51.2875 72.7969C51.2875 74.9844 49.8448 76.0781 46.9594 76.0781C45.6 76.0781 44.3344 75.9219 43.1625 75.6094Z" fill="black"/>
</svg>
