<svg width="88" height="88" viewBox="0 0 88 88" fill="none" xmlns="http://www.w3.org/2000/svg">
<path d="M77.8541 0H10.1459C4.54247 0 0 4.54247 0 10.1459V77.8541C0 83.4575 4.54247 88 10.1459 88H77.8541C83.4575 88 88 83.4575 88 77.8541V10.1459C88 4.54247 83.4575 0 77.8541 0Z" fill="#8F939E"/>
<path d="M21.07 69.384C18.402 69.384 16.2707 68.97 14.676 68.142L17.16 60.92C17.896 61.3187 18.678 61.518 19.506 61.518C20.15 61.518 20.6713 61.2727 21.07 60.782C21.4687 60.322 21.668 59.6013 21.668 58.62V34.838H32.064V58.712C32.064 61.9933 31.0827 64.5847 29.12 66.486C27.188 68.418 24.5047 69.384 21.07 69.384ZM26.866 32.814C24.9953 32.814 23.4773 32.3233 22.312 31.342C21.1773 30.33 20.61 29.0573 20.61 27.524C20.61 25.9907 21.1773 24.7333 22.312 23.752C23.4773 22.74 24.9953 22.234 26.866 22.234C28.7673 22.234 30.2853 22.7093 31.42 23.66C32.5547 24.6107 33.122 25.8373 33.122 27.34C33.122 28.9347 32.5547 30.2533 31.42 31.296C30.2853 32.308 28.7673 32.814 26.866 32.814ZM48.7153 52.272L47.0593 54.066V60H36.6633V25.868H47.0593V42.152L54.2813 34.838H66.5633L56.1673 45.74L67.3913 60H54.8333L48.7153 52.272Z" fill="white"/>
</svg>
